<mxfile host="app.diagrams.net" modified="2024-03-14T15:11:59.575Z" agent="Mozilla/5.0 (X11; Linux x86_64; rv:109.0) Gecko/20100101 Firefox/115.0" etag="vVK5cJLj8KnyRB7JuWxF" version="23.1.4" type="device">
  <diagram name="Page-1" id="t3QkDJuaOJSJyLEdDgzW">
    <mxGraphModel dx="1077" dy="564" grid="1" gridSize="10" guides="1" tooltips="1" connect="1" arrows="1" fold="1" page="1" pageScale="1" pageWidth="1169" pageHeight="1654" math="0" shadow="0">
      <root>
        <mxCell id="0" />
        <mxCell id="1" parent="0" />
        <mxCell id="-fY9AeDwdxSqhKih5XG4-8" value="User" style="rounded=0;whiteSpace=wrap;html=1;" vertex="1" parent="1">
          <mxGeometry x="180" y="310" width="120" height="60" as="geometry" />
        </mxCell>
        <mxCell id="-fY9AeDwdxSqhKih5XG4-9" value="Web Application" style="rounded=0;whiteSpace=wrap;html=1;" vertex="1" parent="1">
          <mxGeometry x="430" y="710" width="120" height="60" as="geometry" />
        </mxCell>
        <mxCell id="-fY9AeDwdxSqhKih5XG4-11" value="Input URL(s)" style="text;html=1;align=center;verticalAlign=middle;resizable=0;points=[];autosize=1;strokeColor=none;fillColor=none;" vertex="1" parent="1">
          <mxGeometry x="240" y="370" width="90" height="30" as="geometry" />
        </mxCell>
        <mxCell id="-fY9AeDwdxSqhKih5XG4-12" value="Web Page &lt;br&gt;Discovery/Crawling" style="rounded=1;whiteSpace=wrap;html=1;" vertex="1" parent="1">
          <mxGeometry x="180" y="570" width="120" height="60" as="geometry" />
        </mxCell>
        <mxCell id="-fY9AeDwdxSqhKih5XG4-13" value="" style="endArrow=none;html=1;rounded=0;" edge="1" parent="1">
          <mxGeometry width="50" height="50" relative="1" as="geometry">
            <mxPoint x="280" y="620.48" as="sourcePoint" />
            <mxPoint x="280" y="620.48" as="targetPoint" />
          </mxGeometry>
        </mxCell>
        <mxCell id="-fY9AeDwdxSqhKih5XG4-16" value="" style="endArrow=none;html=1;rounded=0;" edge="1" parent="1">
          <mxGeometry width="50" height="50" relative="1" as="geometry">
            <mxPoint x="200" y="620.48" as="sourcePoint" />
            <mxPoint x="200" y="620.48" as="targetPoint" />
          </mxGeometry>
        </mxCell>
        <mxCell id="-fY9AeDwdxSqhKih5XG4-19" value="Found Pages" style="text;html=1;align=center;verticalAlign=middle;resizable=0;points=[];autosize=1;strokeColor=none;fillColor=none;" vertex="1" parent="1">
          <mxGeometry x="240" y="650" width="90" height="30" as="geometry" />
        </mxCell>
        <mxCell id="-fY9AeDwdxSqhKih5XG4-20" value="Scan &lt;br&gt;Web Application" style="rounded=1;whiteSpace=wrap;html=1;" vertex="1" parent="1">
          <mxGeometry x="180" y="710" width="120" height="60" as="geometry" />
        </mxCell>
        <mxCell id="-fY9AeDwdxSqhKih5XG4-21" value="" style="endArrow=classic;html=1;rounded=0;entryX=0.5;entryY=0;entryDx=0;entryDy=0;exitX=0.5;exitY=1;exitDx=0;exitDy=0;" edge="1" parent="1" source="-fY9AeDwdxSqhKih5XG4-12" target="-fY9AeDwdxSqhKih5XG4-20">
          <mxGeometry width="50" height="50" relative="1" as="geometry">
            <mxPoint x="220" y="600" as="sourcePoint" />
            <mxPoint x="370" y="690" as="targetPoint" />
          </mxGeometry>
        </mxCell>
        <mxCell id="-fY9AeDwdxSqhKih5XG4-22" value="" style="endArrow=classic;html=1;rounded=0;entryX=0;entryY=0.25;entryDx=0;entryDy=0;exitX=1;exitY=0.25;exitDx=0;exitDy=0;" edge="1" parent="1" source="-fY9AeDwdxSqhKih5XG4-20" target="-fY9AeDwdxSqhKih5XG4-9">
          <mxGeometry width="50" height="50" relative="1" as="geometry">
            <mxPoint x="370" y="860" as="sourcePoint" />
            <mxPoint x="420" y="810" as="targetPoint" />
          </mxGeometry>
        </mxCell>
        <mxCell id="-fY9AeDwdxSqhKih5XG4-23" value="HTTP Requests" style="text;html=1;align=center;verticalAlign=middle;resizable=0;points=[];autosize=1;strokeColor=none;fillColor=none;" vertex="1" parent="1">
          <mxGeometry x="300" y="700" width="110" height="30" as="geometry" />
        </mxCell>
        <mxCell id="-fY9AeDwdxSqhKih5XG4-24" value="" style="endArrow=classic;html=1;rounded=0;exitX=0;exitY=0.75;exitDx=0;exitDy=0;entryX=1;entryY=0.75;entryDx=0;entryDy=0;" edge="1" parent="1" source="-fY9AeDwdxSqhKih5XG4-9" target="-fY9AeDwdxSqhKih5XG4-20">
          <mxGeometry width="50" height="50" relative="1" as="geometry">
            <mxPoint x="330" y="870" as="sourcePoint" />
            <mxPoint x="380" y="820" as="targetPoint" />
          </mxGeometry>
        </mxCell>
        <mxCell id="-fY9AeDwdxSqhKih5XG4-25" value="HTTP Responses" style="text;html=1;align=center;verticalAlign=middle;resizable=0;points=[];autosize=1;strokeColor=none;fillColor=none;" vertex="1" parent="1">
          <mxGeometry x="300" y="750" width="120" height="30" as="geometry" />
        </mxCell>
        <mxCell id="-fY9AeDwdxSqhKih5XG4-26" value="Create Report" style="rounded=1;whiteSpace=wrap;html=1;" vertex="1" parent="1">
          <mxGeometry x="430" y="849" width="120" height="60" as="geometry" />
        </mxCell>
        <mxCell id="-fY9AeDwdxSqhKih5XG4-27" value="" style="endArrow=none;html=1;rounded=0;" edge="1" parent="1">
          <mxGeometry width="50" height="50" relative="1" as="geometry">
            <mxPoint x="200" y="866" as="sourcePoint" />
            <mxPoint x="280" y="866" as="targetPoint" />
          </mxGeometry>
        </mxCell>
        <mxCell id="-fY9AeDwdxSqhKih5XG4-28" value="" style="endArrow=none;html=1;rounded=0;" edge="1" parent="1">
          <mxGeometry width="50" height="50" relative="1" as="geometry">
            <mxPoint x="200" y="896" as="sourcePoint" />
            <mxPoint x="280" y="896" as="targetPoint" />
          </mxGeometry>
        </mxCell>
        <mxCell id="-fY9AeDwdxSqhKih5XG4-29" value="Scan Results" style="text;html=1;align=center;verticalAlign=middle;resizable=0;points=[];autosize=1;strokeColor=none;fillColor=none;" vertex="1" parent="1">
          <mxGeometry x="190" y="864" width="90" height="30" as="geometry" />
        </mxCell>
        <mxCell id="-fY9AeDwdxSqhKih5XG4-30" value="" style="endArrow=classic;html=1;rounded=0;entryX=0;entryY=0.5;entryDx=0;entryDy=0;exitX=1.003;exitY=0.48;exitDx=0;exitDy=0;exitPerimeter=0;" edge="1" parent="1" source="-fY9AeDwdxSqhKih5XG4-29" target="-fY9AeDwdxSqhKih5XG4-26">
          <mxGeometry width="50" height="50" relative="1" as="geometry">
            <mxPoint x="290" y="970" as="sourcePoint" />
            <mxPoint x="340" y="920" as="targetPoint" />
          </mxGeometry>
        </mxCell>
        <mxCell id="-fY9AeDwdxSqhKih5XG4-31" value="Identified Vulnerablities" style="text;html=1;align=center;verticalAlign=middle;resizable=0;points=[];autosize=1;strokeColor=none;fillColor=none;" vertex="1" parent="1">
          <mxGeometry x="280" y="849" width="140" height="30" as="geometry" />
        </mxCell>
        <mxCell id="-fY9AeDwdxSqhKih5XG4-33" value="" style="endArrow=none;html=1;rounded=0;" edge="1" parent="1">
          <mxGeometry width="50" height="50" relative="1" as="geometry">
            <mxPoint x="570" y="932" as="sourcePoint" />
            <mxPoint x="650" y="932" as="targetPoint" />
          </mxGeometry>
        </mxCell>
        <mxCell id="-fY9AeDwdxSqhKih5XG4-34" value="" style="endArrow=none;html=1;rounded=0;" edge="1" parent="1">
          <mxGeometry width="50" height="50" relative="1" as="geometry">
            <mxPoint x="570" y="962" as="sourcePoint" />
            <mxPoint x="650" y="962" as="targetPoint" />
          </mxGeometry>
        </mxCell>
        <mxCell id="-fY9AeDwdxSqhKih5XG4-35" value="Reports" style="text;html=1;align=center;verticalAlign=middle;resizable=0;points=[];autosize=1;strokeColor=none;fillColor=none;" vertex="1" parent="1">
          <mxGeometry x="570" y="930" width="70" height="30" as="geometry" />
        </mxCell>
        <mxCell id="-fY9AeDwdxSqhKih5XG4-36" value="" style="endArrow=classic;html=1;rounded=0;exitX=0;exitY=0.544;exitDx=0;exitDy=0;entryX=0.57;entryY=0.062;entryDx=0;entryDy=0;entryPerimeter=0;exitPerimeter=0;" edge="1" parent="1" source="-fY9AeDwdxSqhKih5XG4-37" target="-fY9AeDwdxSqhKih5XG4-35">
          <mxGeometry width="50" height="50" relative="1" as="geometry">
            <mxPoint x="240" y="1020" as="sourcePoint" />
            <mxPoint x="290" y="970" as="targetPoint" />
          </mxGeometry>
        </mxCell>
        <mxCell id="-fY9AeDwdxSqhKih5XG4-37" value="Target Report" style="text;html=1;align=center;verticalAlign=middle;resizable=0;points=[];autosize=1;strokeColor=none;fillColor=none;" vertex="1" parent="1">
          <mxGeometry x="610" y="864" width="90" height="30" as="geometry" />
        </mxCell>
        <mxCell id="-fY9AeDwdxSqhKih5XG4-38" value="" style="endArrow=classic;html=1;rounded=0;exitX=0.995;exitY=0.517;exitDx=0;exitDy=0;entryX=1;entryY=0.5;entryDx=0;entryDy=0;exitPerimeter=0;" edge="1" parent="1" source="-fY9AeDwdxSqhKih5XG4-26" target="-fY9AeDwdxSqhKih5XG4-8">
          <mxGeometry width="50" height="50" relative="1" as="geometry">
            <mxPoint x="580" y="830" as="sourcePoint" />
            <mxPoint x="610" y="270" as="targetPoint" />
            <Array as="points">
              <mxPoint x="610" y="880" />
              <mxPoint x="610" y="340" />
            </Array>
          </mxGeometry>
        </mxCell>
        <mxCell id="-fY9AeDwdxSqhKih5XG4-40" value="" style="endArrow=classic;html=1;rounded=0;exitX=0.5;exitY=1;exitDx=0;exitDy=0;entryX=0.56;entryY=0.087;entryDx=0;entryDy=0;entryPerimeter=0;" edge="1" parent="1" source="-fY9AeDwdxSqhKih5XG4-20" target="-fY9AeDwdxSqhKih5XG4-29">
          <mxGeometry width="50" height="50" relative="1" as="geometry">
            <mxPoint x="60" y="850" as="sourcePoint" />
            <mxPoint x="110" y="800" as="targetPoint" />
          </mxGeometry>
        </mxCell>
        <mxCell id="-fY9AeDwdxSqhKih5XG4-41" value="Possible Alerts" style="text;html=1;align=center;verticalAlign=middle;resizable=0;points=[];autosize=1;strokeColor=none;fillColor=none;" vertex="1" parent="1">
          <mxGeometry x="240" y="800" width="100" height="30" as="geometry" />
        </mxCell>
        <mxCell id="-fY9AeDwdxSqhKih5XG4-42" value="Configuration Parameters" style="text;html=1;align=center;verticalAlign=middle;resizable=0;points=[];autosize=1;strokeColor=none;fillColor=none;" vertex="1" parent="1">
          <mxGeometry x="230" y="390" width="160" height="30" as="geometry" />
        </mxCell>
        <mxCell id="-fY9AeDwdxSqhKih5XG4-43" value="Configure Attack Settings" style="rounded=1;whiteSpace=wrap;html=1;" vertex="1" parent="1">
          <mxGeometry x="180" y="430" width="120" height="60" as="geometry" />
        </mxCell>
        <mxCell id="-fY9AeDwdxSqhKih5XG4-44" value="" style="endArrow=classic;html=1;rounded=0;exitX=0.5;exitY=1;exitDx=0;exitDy=0;" edge="1" parent="1" source="-fY9AeDwdxSqhKih5XG4-8" target="-fY9AeDwdxSqhKih5XG4-43">
          <mxGeometry width="50" height="50" relative="1" as="geometry">
            <mxPoint x="70" y="420" as="sourcePoint" />
            <mxPoint x="120" y="370" as="targetPoint" />
          </mxGeometry>
        </mxCell>
        <mxCell id="-fY9AeDwdxSqhKih5XG4-45" value="" style="endArrow=classic;html=1;rounded=0;exitX=0.5;exitY=1;exitDx=0;exitDy=0;entryX=0.5;entryY=0;entryDx=0;entryDy=0;" edge="1" parent="1" source="-fY9AeDwdxSqhKih5XG4-43" target="-fY9AeDwdxSqhKih5XG4-12">
          <mxGeometry width="50" height="50" relative="1" as="geometry">
            <mxPoint x="80" y="560" as="sourcePoint" />
            <mxPoint x="130" y="510" as="targetPoint" />
          </mxGeometry>
        </mxCell>
        <mxCell id="-fY9AeDwdxSqhKih5XG4-46" value="Attack Settings" style="text;html=1;align=center;verticalAlign=middle;resizable=0;points=[];autosize=1;strokeColor=none;fillColor=none;" vertex="1" parent="1">
          <mxGeometry x="235" y="510" width="100" height="30" as="geometry" />
        </mxCell>
      </root>
    </mxGraphModel>
  </diagram>
</mxfile>
